PathFileType	4	(X/Y/Z)	paretic_pre_fa151403.trc
DataRate	CameraRate	NumFrames	NumMarkers	Units	OrigDataRate	OrigDataStartFrame	OrigNumFrames
58.68	58.68	24	11	cm	58.68	763	1017
Frame#	Time	NOSE			LEFT_SHOULDER			RIGHT_SHOULDER			LEFT_ELBOW			RIGHT_ELBOW			LEFT_WRIST			RIGHT_WRIST			LEFT_HIP			RIGHT_HIP			LEFT_INDEX			RIGHT_INDEX		
		X1	Y1	Z1	X2	Y2	Z2	X3	Y3	Z3	X4	Y4	Z4	X5	Y5	Z5	X6	Y6	Z6	X7	Y7	Z7	X8	Y8	Z8	X9	Y9	Z9	X10	Y10	Z10	X11	Y11	Z11
792	13.497865168539326	12.408439	-62.321777	-28.060689	14.660707	-49.520186	11.209520	-18.564034	-59.333603	-3.216848	21.051319	-21.567583	10.817528	-33.820178	-21.528096	-14.031876	36.505137	-7.246368	0.913922	-21.911335	-7.520925	-29.228278	9.953774	-1.834744	12.281060	-9.531933	1.298796	-11.890723	38.418455	-6.067517	-3.977923	-6.602123	-12.950781	-39.074700
793	13.514907927590512	12.418525	-62.300652	-28.751810	14.650267	-49.519585	10.139148	-18.560903	-59.250647	-4.219631	20.776293	-21.554103	9.513729	-33.832300	-21.400000	-14.182324	36.211761	-7.215342	-1.153097	-21.952342	-7.449509	-29.194885	9.953979	-1.835893	12.280558	-9.531888	1.301044	-11.890635	38.202543	-6.060946	-6.090398	-6.650286	-12.918305	-38.969729
794	13.531950686641698	12.419928	-62.301387	-28.893726	14.670470	-49.534894	10.192675	-18.546427	-59.255793	-4.221329	20.773598	-21.584972	9.880468	-33.788919	-21.403005	-14.468332	36.425605	-7.223366	-0.126714	-21.888655	-7.506101	-30.151712	9.955929	-1.835416	12.284767	-9.533733	1.300666	-11.893684	38.642125	-6.063618	-4.957910	-6.569496	-12.988416	-40.041251
795	13.548993445692885	12.459964	-62.240526	-29.555533	14.680598	-49.513598	9.675902	-18.530879	-59.151395	-4.788146	20.781557	-21.566501	9.186191	-33.753726	-21.252024	-15.321521	36.452957	-7.224210	-1.221168	-21.848052	-7.504553	-30.979836	9.956352	-1.836815	12.284742	-9.534014	1.302710	-11.893737	38.665122	-6.095812	-6.105728	-6.542973	-13.009092	-40.839034
796	13.56603620474407	12.483536	-62.249259	-29.543651	14.670535	-49.515410	9.691311	-18.508263	-59.114499	-4.793226	20.760442	-21.577925	9.203206	-33.746799	-21.198976	-15.424399	36.453099	-7.194633	-1.196716	-21.846836	-7.498651	-31.158254	9.956004	-1.835816	12.286183	-9.533419	1.301978	-11.894805	38.672092	-6.033349	-6.092539	-6.547795	-13.007907	-40.995410
797	13.583078963795256	12.496859	-62.263881	-28.912680	14.814353	-49.403794	10.400913	-18.382679	-59.094271	-3.966086	21.150654	-21.540790	9.349067	-33.686566	-21.177400	-15.058556	36.711378	-7.164516	-1.227205	-21.819439	-7.496054	-31.101659	9.956177	-1.822081	12.285871	-9.533422	1.287607	-11.894182	38.779873	-5.991438	-6.187001	-6.503499	-13.003697	-40.955455
798	13.600121722846442	12.541210	-62.307609	-29.377296	14.943400	-49.443627	9.990325	-18.207208	-59.119673	-4.222383	21.135372	-21.598688	8.961268	-33.031615	-21.224843	-15.540918	36.632650	-7.666982	-1.633106	-21.308465	-7.789943	-32.214118	9.963587	-1.821441	12.279923	-9.540129	1.287278	-11.889122	38.721669	-6.842569	-6.554895	-6.125470	-13.359498	-42.229290
799	13.617164481897628	12.575366	-62.263540	-29.709878	14.907094	-49.415793	9.636309	-18.167159	-59.060454	-4.735021	21.073920	-21.571072	8.986415	-33.008890	-21.238898	-15.565959	36.629718	-7.523873	-1.153132	-21.302649	-7.731310	-31.660126	9.946178	-1.823119	12.281198	-9.521173	1.290160	-11.890993	38.753078	-6.739395	-5.920476	-6.125036	-13.266245	-41.446933
800	13.634207240948815	12.417177	-62.260762	-30.645999	14.905904	-49.374002	9.098956	-18.279863	-59.032737	-5.124035	21.003838	-21.519903	8.337167	-33.109197	-21.211126	-16.193755	36.565145	-7.484576	-2.055993	-21.349570	-7.717302	-32.568045	9.953962	-1.825980	12.274782	-9.530419	1.293689	-11.883160	38.681162	-6.692606	-6.984482	-6.151227	-13.262574	-42.529531
801	13.65125	12.467708	-62.572672	-29.698404	14.960184	-49.676493	10.204291	-18.268395	-59.522939	-4.676274	21.176539	-22.032937	9.998390	-33.045816	-22.032847	-16.166554	36.893001	-7.745952	0.218174	-21.278660	-8.343776	-32.538983	9.954444	-1.821609	12.283039	-9.531125	1.290192	-11.891939	38.922061	-6.713028	-4.687542	-6.099891	-13.701858	-42.489632
802	13.668292759051186	12.412032	-62.592676	-29.678757	14.554071	-49.960032	10.174512	-18.421869	-59.520453	-4.782270	20.310373	-22.224785	10.072951	-33.313950	-22.029549	-15.940119	36.342836	-7.805144	0.508176	-21.453588	-8.322302	-30.479414	9.952472	-1.831098	12.286151	-9.529006	1.302098	-11.896878	38.611621	-6.770202	-4.276512	-6.318151	-13.695288	-39.919550
803	13.685335518102372	12.334379	-62.520349	-29.664212	14.455204	-49.838543	10.152876	-18.474427	-59.373196	-4.779909	20.057138	-22.003057	10.072170	-33.421018	-21.898947	-15.549980	36.286533	-7.596943	0.493240	-21.678318	-7.974885	-29.787958	9.950902	-1.831470	12.279546	-9.527808	1.302639	-11.890165	38.610659	-6.628914	-4.294470	-6.587559	-13.418597	-39.288073
804	13.702378277153558	12.457184	-62.465618	-29.970854	14.710625	-49.772000	9.919537	-18.455741	-59.261504	-4.977520	21.473967	-22.008589	9.363523	-33.304557	-21.678281	-16.535278	36.428656	-7.615271	-0.997717	-21.500492	-7.935399	-32.283291	9.950544	-1.832893	12.279098	-9.527447	1.303319	-11.889555	38.502609	-6.632107	-5.937838	-6.391438	-13.405421	-42.071748
805	13.719421036204745	12.387982	-62.674393	-29.477780	14.645226	-49.881345	10.367183	-18.497912	-59.378619	-4.772343	21.029611	-22.089207	10.118367	-33.388352	-21.741193	-16.526200	36.393095	-7.639034	0.122729	-21.526268	-8.025968	-32.324684	9.959586	-1.826816	12.283918	-9.537440	1.297176	-11.893075	38.501488	-6.626195	-4.723745	-6.398303	-13.477956	-42.133003
806	13.73646379525593	12.300926	-62.449408	-31.078771	14.695629	-49.634808	8.955461	-18.524353	-59.299196	-5.467129	21.016981	-21.529235	8.273946	-33.395206	-21.724316	-16.636797	36.382689	-7.512125	-1.958760	-21.548810	-7.980925	-32.322714	9.959285	-1.833868	12.282374	-9.537534	1.303765	-11.892169	38.500838	-6.620769	-6.991105	-6.447891	-13.474169	-42.163453
807	13.753506554307116	12.316051	-62.508030	-30.947761	14.754083	-49.635031	9.042494	-18.524721	-59.306731	-5.404373	21.216760	-21.538120	8.313833	-33.416108	-21.721686	-16.481720	36.517270	-7.513855	-1.888770	-21.541672	-7.974312	-31.989390	9.959142	-1.834175	12.282213	-9.537275	1.304006	-11.892383	38.528860	-6.615922	-6.905032	-6.404415	-13.469218	-41.830508
808	13.770549313358302	12.294984	-62.595117	-30.012580	14.669518	-49.653942	9.857660	-18.559404	-59.305122	-4.900322	20.993456	-21.550419	9.634539	-33.560446	-21.692668	-15.659857	36.472668	-7.508011	-0.033805	-21.721764	-7.970425	-30.916886	9.959906	-1.827259	12.285867	-9.537950	1.297778	-11.896661	38.524648	-6.586292	-4.792382	-6.543514	-13.469176	-40.675506
809	13.787592072409488	12.276077	-62.581458	-29.494768	14.691644	-49.606778	10.358819	-18.572058	-59.304448	-4.132667	20.997603	-21.492743	9.710728	-33.630393	-21.689875	-14.783071	36.368949	-7.503582	-0.081564	-21.798814	-7.962923	-29.977991	9.960241	-1.825150	12.282298	-9.538280	1.295518	-11.894372	38.274727	-6.581504	-4.866609	-6.599568	-13.466158	-39.810571
810	13.804634831460675	12.231857	-62.880033	-28.607420	14.633829	-49.743413	11.263905	-18.624937	-59.528020	-3.449105	20.843352	-21.612559	10.496677	-33.859272	-21.874817	-14.328335	36.257223	-7.565224	0.448575	-21.967785	-8.107862	-29.523064	9.961064	-1.821002	12.282485	-9.538869	1.292002	-11.894871	38.172035	-6.579577	-4.370589	-6.736856	-13.581159	-39.289592
811	13.821677590511861	12.234881	-62.897109	-28.743274	14.530568	-49.752654	10.482731	-18.660230	-59.488110	-4.407086	20.343070	-21.603016	9.598994	-33.873888	-21.831121	-14.414660	35.843645	-7.580689	-1.300243	-22.004598	-7.986231	-29.422318	9.958565	-1.830319	12.282740	-9.536751	1.301453	-11.895850	37.884467	-6.658818	-6.345968	-6.813104	-13.490948	-39.133298
812	13.838720349563046	12.241643	-62.898477	-28.385629	14.598027	-49.748795	11.080195	-18.659996	-59.484946	-3.790926	20.875510	-21.647863	10.076344	-33.876542	-21.826521	-14.161027	35.962124	-7.577534	-0.715217	-22.028668	-7.980763	-29.246078	9.956963	-1.829857	12.285601	-9.535010	1.300659	-11.899471	37.888321	-6.596687	-5.701274	-6.841099	-13.490855	-38.952288
813	13.855763108614232	12.231066	-62.922068	-27.540635	14.585885	-49.719173	11.701179	-18.666485	-59.482566	-2.999755	20.867959	-21.636882	10.646385	-33.904129	-21.799762	-13.580309	36.043801	-7.451811	0.056556	-22.123435	-7.977407	-28.755831	9.959293	-1.821491	12.285735	-9.536949	1.292004	-11.899872	38.049640	-6.313411	-4.876288	-6.930526	-13.488113	-38.482126
814	13.872805867665418	12.042377	-62.790871	-27.564918	14.381425	-49.636700	11.689856	-18.910686	-59.401799	-3.023319	20.642838	-21.590286	10.635180	-34.146800	-21.589112	-13.783012	36.027749	-7.361296	0.059955	-22.295706	-7.834000	-29.512248	9.960561	-1.821366	12.284867	-9.538611	1.291807	-11.898128	38.051647	-6.209443	-4.874647	-7.053322	-13.434615	-39.407739
815	13.889848626716605	12.171900	-62.790578	-26.404087	14.492835	-49.633520	12.305507	-18.904510	-59.452042	-2.238860	21.175643	-21.590244	10.844031	-33.904249	-21.648690	-13.815712	36.458976	-7.365610	0.056860	-22.200561	-7.940485	-30.455517	9.965460	-1.812944	12.276707	-9.544217	1.280900	-11.888077	38.235166	-6.209675	-4.901736	-7.026561	-13.523003	-40.628983
